<?xml version="1.0" standalone="no"?>
<!DOCTYPE svg PUBLIC "-//W3C//DTD SVG 20010904//EN"
 "http://www.w3.org/TR/2001/REC-SVG-20010904/DTD/svg10.dtd">
<svg version="1.0" xmlns="http://www.w3.org/2000/svg"
 width="500.000000pt" height="500.000000pt" viewBox="0 0 500.000000 500.000000"
 preserveAspectRatio="xMidYMid meet">

<g transform="translate(0.000000,500.000000) scale(0.100000,-0.100000)"
fill="#000000" stroke="none">
<path d="M2994 2819 c-10 -17 13 -36 27 -22 12 12 4 33 -11 33 -5 0 -12 -5
-16 -11z"/>
<path d="M2770 2690 c0 -80 4 -130 10 -130 6 0 10 26 10 58 0 76 16 106 58
110 52 5 62 -10 62 -94 0 -59 3 -74 15 -74 12 0 15 14 15 65 0 79 -14 111 -53
124 -23 9 -37 8 -60 -4 -17 -8 -32 -15 -34 -15 -1 0 -3 20 -3 45 0 25 -4 45
-10 45 -6 0 -10 -50 -10 -130z"/>
<path d="M2160 2685 c0 -72 4 -125 10 -125 5 0 10 26 12 58 l3 57 43 3 c56 4
54 22 -4 22 l-45 0 3 43 3 42 53 3 c75 4 65 22 -13 22 l-65 0 0 -125z"/>
<path d="M2384 2750 c-33 -13 -54 -50 -54 -95 1 -43 13 -65 47 -83 32 -18 67
-14 91 8 l22 21 0 -21 c0 -11 7 -20 15 -20 12 0 15 17 15 95 0 78 -3 95 -15
95 -8 0 -15 -7 -15 -17 0 -15 -2 -15 -17 0 -24 21 -63 28 -89 17z m91 -44 c38
-58 -12 -141 -72 -120 -51 18 -66 89 -27 128 25 25 81 20 99 -8z"/>
<path d="M2613 2750 c-12 -5 -26 -16 -31 -26 -17 -31 -2 -53 50 -72 54 -18 67
-34 48 -57 -16 -19 -54 -19 -70 0 -7 8 -19 15 -27 15 -29 0 7 -39 43 -46 51
-9 84 8 84 45 0 33 -6 39 -65 61 -45 18 -54 47 -18 61 15 6 29 2 46 -12 30
-23 37 -24 37 -5 0 30 -58 52 -97 36z"/>
<path d="M3145 2753 c-79 -18 -96 -142 -24 -178 74 -39 144 7 142 92 -2 57
-60 99 -118 86z m75 -43 c28 -28 26 -75 -5 -105 -31 -32 -59 -32 -90 0 -29 28
-32 70 -9 103 20 29 76 30 104 2z"/>
<path d="M3375 2744 c-19 -10 -31 -11 -33 -5 -2 6 -8 11 -13 11 -5 0 -9 -43
-9 -95 0 -57 4 -95 10 -95 6 0 10 28 10 63 0 79 17 107 65 107 44 0 55 -20 55
-104 0 -37 4 -66 10 -66 6 0 10 33 10 78 0 63 -4 82 -17 94 -29 25 -56 29 -88
12z"/>
<path d="M3000 2655 c0 -57 4 -95 10 -95 6 0 10 38 10 95 0 57 -4 95 -10 95
-6 0 -10 -38 -10 -95z"/>
<path d="M2754 2479 c-10 -17 13 -36 27 -22 12 12 4 33 -11 33 -5 0 -12 -5
-16 -11z"/>
<path d="M2670 2350 c0 -109 2 -130 15 -130 13 0 15 21 15 130 0 109 -2 130
-15 130 -13 0 -15 -21 -15 -130z"/>
<path d="M3600 2350 c0 -109 2 -130 15 -130 12 0 15 14 15 66 0 84 11 104 55
104 48 0 65 -28 65 -107 0 -35 4 -63 10 -63 13 0 13 136 -1 161 -16 31 -54 41
-94 24 l-35 -14 0 45 c0 32 -4 44 -15 44 -13 0 -15 -21 -15 -130z"/>
<path d="M2213 2456 c-89 -41 -81 -195 12 -226 50 -16 96 -6 131 31 25 26 29
38 29 84 0 48 -4 59 -31 86 -37 36 -93 46 -141 25z m125 -41 c51 -59 17 -159
-59 -171 -31 -5 -42 -1 -70 24 -29 26 -34 37 -34 77 0 40 5 51 34 77 28 25 39
29 70 24 21 -3 45 -16 59 -31z"/>
<path d="M3425 2458 c-27 -15 -35 -28 -35 -60 0 -30 25 -51 75 -63 40 -9 55
-23 55 -51 0 -42 -56 -58 -90 -24 -21 21 -40 26 -40 11 0 -16 30 -41 57 -47
36 -9 75 7 92 38 23 41 4 72 -58 93 -60 20 -77 42 -55 73 19 27 55 28 79 2 21
-24 35 -26 35 -6 0 36 -73 58 -115 34z"/>
<path d="M2498 2406 c-16 -8 -28 -11 -28 -5 0 5 -7 9 -15 9 -12 0 -15 -17 -15
-95 0 -78 3 -95 15 -95 12 0 15 15 15 74 0 80 10 99 55 99 45 0 55 -19 55 -99
0 -59 3 -74 15 -74 23 0 21 140 -2 168 -24 28 -62 35 -95 18z"/>
<path d="M2905 2404 c-19 -10 -31 -11 -33 -5 -2 6 -8 11 -13 11 -5 0 -9 -43
-9 -95 0 -57 4 -95 10 -95 6 0 10 28 10 63 0 79 17 107 65 107 44 0 55 -20 55
-104 0 -37 4 -66 10 -66 6 0 10 33 10 78 0 63 -4 82 -17 94 -29 25 -56 29 -88
12z"/>
<path d="M3125 2411 c-98 -41 -68 -191 38 -191 25 0 77 34 77 51 0 15 -19 10
-40 -11 -26 -26 -60 -25 -88 0 -42 39 -30 50 58 50 66 0 80 3 80 15 0 32 -30
73 -61 84 -36 13 -37 13 -64 2z m87 -44 c19 -30 8 -37 -57 -37 -36 0 -65 3
-65 6 0 16 24 46 43 53 24 9 67 -3 79 -22z"/>
<path d="M3873 2404 c-89 -44 -55 -184 44 -184 49 0 93 45 93 95 0 49 -15 74
-55 91 -42 17 -43 17 -82 -2z m83 -22 c22 -14 35 -53 29 -83 -18 -82 -135 -70
-135 14 0 47 25 77 63 77 18 0 37 -4 43 -8z"/>
<path d="M4140 2413 c-8 -3 -23 -12 -32 -21 -16 -14 -18 -13 -18 1 0 10 -7 17
-15 17 -13 0 -15 -22 -15 -140 0 -118 2 -140 15 -140 12 0 15 14 15 65 l0 66
29 -22 c38 -28 93 -20 117 17 25 38 22 101 -7 129 -26 25 -64 37 -89 28z m74
-45 c9 -12 16 -35 16 -51 0 -33 -40 -77 -70 -77 -30 0 -70 44 -70 77 0 47 25
73 70 73 29 0 43 -6 54 -22z"/>
<path d="M2760 2315 c0 -57 4 -95 10 -95 6 0 10 38 10 95 0 57 -4 95 -10 95
-6 0 -10 -38 -10 -95z"/>
</g>
</svg>
